#!OML:ASF E:\emotionWalksFemale\Project 1\Capture day 1\Session 1\Female1.ASF
:FULLY-SPECIFIED
:DEGREES
1006
root 7.32693 15.3586 -38.4658 174.091 -163.928 -180.26
lowerback 5.75161 3.44061 6.4506
upperback -2.95203 5.33843 3.74793
thorax -6.10101 2.44194 -0.251788
lowerneck -8.0458 0.84189 0.319659
upperneck 22.7559 2.45828 -5.94507
head 8.46647 0.602114 -1.81483
rclavicle 1.66979e-014 2.54444e-014
rhumerus 13.5389 -4.64955 -57.3324
rradius 27.1333
rwrist 30.8722
rhand 1.03238 303.521
rfingers 7.12502
rthumb 26.5788 -444.633
lclavicle 1.66979e-014 2.54444e-014
lhumerus -23.5308 28.7182 21.8548
lradius 34.5861
lwrist -7.94387
lhand -5.8064 -24.2828
lfingers 7.12502
lthumb 20.0185 4.70598
rfemur 2.0166 0.935669 23.434
rtibia 32.1681
rfoot -17.6038 -23.8202
rtoes -17.5749
lfemur -11.856 -10.9257 -17.9103
ltibia 38.3202
lfoot -28.1828 8.46573
ltoes -41.5702
1007
root 7.31607 15.3596 -38.4657 174.144 -164.467 -180.374
lowerback 5.71988 3.49629 6.3216
upperback -3.28158 5.42375 3.72488
thorax -6.43928 2.47447 -0.221332
lowerneck -7.44497 0.595305 -0.159268
upperneck 22.7977 2.09433 -5.54925
head 8.3488 0.437291 -1.63565
rclavicle -5.96354e-014 -7.15625e-014
rhumerus 13.4843 -3.47187 -57.2762
rradius 27.2237
rwrist 30.5843
rhand 1.95415 299.857
rfingers 7.12502
rthumb 27.4607 -448.161
lclavicle -5.96354e-014 -7.15625e-014
lhumerus -23.7405 29.4644 19.8836
lradius 34.9918
lwrist -7.23185
lhand -5.62485 -24.2541
lfingers 7.12502
lthumb 20.193 4.71641
rfemur 2.15119 0.944635 23.7155
rtibia 31.9665
rfoot -17.4856 -24.3973
rtoes -17.3566
lfemur -11.4622 -10.7979 -17.5355
ltibia 38.4238
lfoot -27.9764 8.6316
ltoes -41.5389
1008
root 7.30663 15.3647 -38.4614 174.25 -164.91 -180.4
lowerback 5.19471 3.63036 5.93955
upperback -3.11621 5.51475 3.78981
thorax -5.99698 2.55429 0.0870203
lowerneck -7.96353 0.328604 -0.704728
upperneck 22.924 1.76008 -5.22897
head 8.47268 0.254082 -1.46811
rclavicle -3.49861e-014 -4.45278e-014
rhumerus 14.354 -3.09127 -57.2813
rradius 27.2453
rwrist 30.5068
rhand 1.94364 300.121
rfingers 7.12502
rthumb 27.4507 -447.899
lclavicle -3.49861e-014 -4.45278e-014
lhumerus -23.6644 31.1161 18.2726
lradius 35.3628
lwrist -6.99721
lhand -5.88815 -24.1641
lfingers 7.12502
lthumb 19.9399 4.83294
rfemur 2.14847 1.01839 23.8975
rtibia 31.8666
rfoot -17.4317 -24.9924
rtoes -17.0865
lfemur -11.1171 -10.8564 -17.264
ltibia 38.5067
lfoot -28.1191 8.79621
ltoes -41.4462
1009
root 7.29876 15.372 -38.459 174.335 -165.288 -180.388
lowerback 5.35151 3.77574 5.82941
upperback -3.56969 5.73564 3.56204
thorax -6.54808 2.64124 -0.136149
lowerneck -7.46641 0.0530091 -0.937584
upperneck 23.1058 1.30957 -4.79359
head 8.42635 0.0674398 -1.3261
rclavicle -5.04913e-014 -4.77083e-014
rhumerus 14.0539 -2.64804 -57.5056
rradius 27.4688
rwrist 30.5643
rhand 1.59152 305.026
rfingers 7.12502
rthumb 27.1139 -443.046
lclavicle -5.04913e-014 -4.77083e-014
lhumerus -23.7487 30.5807 16.3185
lradius 36.0516
lwrist -5.67624
lhand -5.87224 -23.8759
lfingers 7.12502
lthumb 19.9552 5.11953
rfemur 2.1461 1.15304 24.0407
rtibia 31.8025
rfoot -17.9399 -25.4454
rtoes -15.5174
lfemur -10.7274 -10.8513 -17.0405
ltibia 38.5388
lfoot -28.2624 9.13043
ltoes -41.5815
1010
root 7.2937 15.3776 -38.4589 174.4 -165.62 -180.364
lowerback 4.87607 3.94088 5.44765
upperback -3.38418 5.87205 3.55521
thorax -6.10628 2.74173 0.0935485
lowerneck -7.8062 -0.196004 -1.32181
upperneck 22.9647 0.956471 -4.46875
head 8.43187 -0.101464 -1.18406
rclavicle -7.95139e-015 -1.59028e-015
rhumerus 14.8405 -2.80767 -57.5715
rradius 27.5924
rwrist 30.9638
rhand 1.76628 302.969
rfingers 7.12502
rthumb 27.281 -445.077
lclavicle -7.95139e-015 -1.59028e-015
lhumerus -23.6991 30.9597 14.7667
lradius 36.6963
lwrist -4.39884
lhand -5.73495 -23.7167
lfingers 7.12502
lthumb 20.0871 5.26491
rfemur 2.15042 1.2399 24.1339
rtibia 31.7432
rfoot -18.6749 -25.7075
rtoes -13.3478
lfemur -10.2782 -10.7968 -16.845
ltibia 38.5585
lfoot -28.4994 9.10762
ltoes -39.9159
1011
root 7.29244 15.3787 -38.4552 174.48 -165.924 -180.427
lowerback 4.62609 4.0963 5.29793
upperback -3.42458 6.04503 3.45022
thorax -6.0028 2.83439 0.0688803
lowerneck -7.67807 -0.433515 -1.61187
upperneck 22.7746 0.564172 -4.03724
head 8.33523 -0.263819 -1.02445
rclavicle 4.53229e-014 1.27222e-014
rhumerus 15.0327 -1.70451 -57.4751
rradius 28.2664
rwrist 29.7924
rhand 2.92702 302.89
rfingers 7.12502
rthumb 28.3908 -444.977
lclavicle 4.53229e-014 1.27222e-014
lhumerus -23.6791 31.0974 13.1296
lradius 37.3437
lwrist -3.43186
lhand -6.00057 -23.4966
lfingers 7.12502
lthumb 19.8318 5.51158
rfemur 2.16028 1.28695 24.2855
rtibia 31.6883
rfoot -19.2058 -26.0041
rtoes -12.0168
lfemur -9.81658 -10.8007 -16.5804
ltibia 38.5938
lfoot -28.8497 9.11202
ltoes -37.8943
1012
root 7.29391 15.3793 -38.4504 174.54 -166.208 -180.49
lowerback 4.52676 4.19919 5.19402
upperback -3.54235 6.1697 3.34908
thorax -6.0657 2.89567 0.0134216
lowerneck -7.45741 -0.605697 -1.89994
upperneck 22.5656 0.280145 -3.69626
head 8.22011 -0.383028 -0.884915
rclavicle 1.35174e-014 8.74653e-015
rhumerus 15.2076 -0.989024 -57.5575
rradius 28.8079
rwrist 29.2164
rhand 2.55299 300.715
rfingers 7.12502
rthumb 28.0333 -447.211
lclavicle 1.35174e-014 8.74653e-015
lhumerus -23.9338 31.3405 11.356
lradius 38.06
lwrist -2.60671
lhand -6.05272 -23.3716
lfingers 7.12502
lthumb 19.7817 5.64177
rfemur 2.18155 1.38539 24.4465
rtibia 31.6579
rfoot -19.4832 -26.3478
rtoes -11.2059
lfemur -9.33528 -10.7699 -16.3214
ltibia 38.6129
lfoot -29.2248 9.47193
ltoes -37.2712
1013
root 7.29675 15.3811 -38.4483 174.594 -166.452 -180.506
lowerback 4.4714 4.31803 5.05051
upperback -3.66152 6.31536 3.22507
thorax -6.15603 2.96775 -0.0495804
lowerneck -7.18601 -0.803301 -2.05091
upperneck 22.2111 -0.0440103 -3.46474
head 8.04802 -0.518129 -0.806929
rclavicle -2.32578e-014 -5.56597e-015
rhumerus 15.4229 -0.781371 -57.8076
rradius 29.2016
rwrist 28.9824
rhand 3.84856 303.303
rfingers 7.12502
rthumb 29.2711 -444.414
lclavicle -2.32578e-014 -5.56597e-015
lhumerus -24.1677 31.7865 9.62461
lradius 38.715
lwrist -1.99759
lhand -5.81141 -23.4973
lfingers 7.12502
lthumb 20.0136 5.492
rfemur 2.13113 1.4544 24.5347
rtibia 31.6869
rfoot -19.433 -26.6232
rtoes -10.8451
lfemur -8.86403 -10.665 -16.0944
ltibia 38.5809
lfoot -29.5435 9.67067
ltoes -36.8332
1014
root 7.30152 15.3788 -38.4474 174.669 -166.694 -180.499
lowerback 4.33933 4.4573 4.79747
upperback -3.69368 6.47117 3.13507
thorax -6.1252 3.05505 -0.0087603
lowerneck -7.09872 -1.10003 -2.19736
upperneck 21.834 -0.490392 -3.27869
head 7.90343 -0.717658 -0.756144
rclavicle -1.0476e-013 -5.56597e-015
rhumerus 15.8062 -0.892908 -58.0547
rradius 29.5336
rwrist 28.8668
rhand 3.79859 302.991
rfingers 7.12502
rthumb 29.2234 -444.734
lclavicle -1.0476e-013 -5.56597e-015
lhumerus -24.4021 32.6116 8.05102
lradius 39.3696
lwrist -1.72557
lhand -5.62662 -23.5642
lfingers 7.12502
lthumb 20.1913 5.40643
rfemur 2.01215 1.43995 24.5506
rtibia 31.7875
rfoot -19.313 -26.8098
rtoes -11.0091
lfemur -8.427 -10.567 -15.8978
ltibia 38.4819
lfoot -29.5591 10.0247
ltoes -36.7754
